<mxfile host="Electron" modified="2023-11-01T16:53:40.853Z" agent="Mozilla/5.0 (Windows NT 10.0; Win64; x64) AppleWebKit/537.36 (KHTML, like Gecko) draw.io/21.1.2 Chrome/106.0.5249.199 Electron/21.4.3 Safari/537.36" etag="kIZ85UhRFU8cTLAguJCc" version="21.1.2" type="device">
  <diagram id="kgpKYQtTHZ0yAKxKKP6v" name="Page-1">
    <mxGraphModel dx="809" dy="415" grid="1" gridSize="10" guides="1" tooltips="1" connect="1" arrows="1" fold="1" page="1" pageScale="1" pageWidth="850" pageHeight="1100" math="0" shadow="0">
      <root>
        <mxCell id="0" />
        <mxCell id="1" parent="0" />
        <mxCell id="enyHou1R51ep5yGdd_6m-1" value="Core" style="rounded=0;whiteSpace=wrap;html=1;" vertex="1" parent="1">
          <mxGeometry x="120" y="360" width="200" height="40" as="geometry" />
        </mxCell>
        <mxCell id="enyHou1R51ep5yGdd_6m-2" value="Core.Wpf" style="rounded=0;whiteSpace=wrap;html=1;" vertex="1" parent="1">
          <mxGeometry x="320" y="320" width="160" height="80" as="geometry" />
        </mxCell>
        <mxCell id="enyHou1R51ep5yGdd_6m-3" value="Domain" style="rounded=0;whiteSpace=wrap;html=1;" vertex="1" parent="1">
          <mxGeometry x="220" y="320" width="100" height="40" as="geometry" />
        </mxCell>
        <mxCell id="enyHou1R51ep5yGdd_6m-5" value="&lt;h1&gt;Описание&lt;/h1&gt;&lt;div&gt;&lt;font style=&quot;font-size: 14px;&quot;&gt;&lt;b&gt;Core&lt;/b&gt;&lt;/font&gt;&lt;font style=&quot;font-size: 14px; font-weight: normal;&quot;&gt; - модели, контракты, основные пакеты&lt;/font&gt;&lt;/div&gt;&lt;div&gt;&lt;font style=&quot;font-size: 14px;&quot;&gt;&lt;b&gt;Core.Wpf&lt;/b&gt;&lt;/font&gt;&lt;font style=&quot;font-size: 14px; font-weight: normal;&quot;&gt; - модели, контракты, пакеты специально для WPF&lt;/font&gt;&lt;/div&gt;&lt;div&gt;&lt;font style=&quot;font-size: 14px;&quot;&gt;&lt;b&gt;Domain&lt;/b&gt;&lt;/font&gt;&lt;font style=&quot;font-size: 14px; font-weight: normal;&quot;&gt; - сервисы с бизнес-логикой, реализация контрактов&lt;/font&gt;&lt;/div&gt;&lt;div&gt;&lt;font style=&quot;font-size: 14px; font-weight: normal;&quot;&gt;Db - модели, контракты, сервисы, пакеты для работы с БД через EfCore&lt;/font&gt;&lt;/div&gt;&lt;div&gt;&lt;font style=&quot;font-size: 14px;&quot;&gt;&lt;b&gt;App.Wpf&lt;/b&gt;&lt;/font&gt;&lt;font style=&quot;font-size: 14px; font-weight: normal;&quot;&gt; - wpf приложение&lt;/font&gt;&lt;/div&gt;" style="text;html=1;strokeColor=none;fillColor=none;spacing=5;spacingTop=-20;whiteSpace=wrap;overflow=hidden;rounded=0;" vertex="1" parent="1">
          <mxGeometry x="520" y="220" width="190" height="270" as="geometry" />
        </mxCell>
        <mxCell id="enyHou1R51ep5yGdd_6m-6" value="App.Wpf" style="rounded=0;whiteSpace=wrap;html=1;" vertex="1" parent="1">
          <mxGeometry x="120" y="280" width="360" height="40" as="geometry" />
        </mxCell>
        <mxCell id="enyHou1R51ep5yGdd_6m-7" value="Db" style="rounded=0;whiteSpace=wrap;html=1;" vertex="1" parent="1">
          <mxGeometry x="120" y="320" width="100" height="40" as="geometry" />
        </mxCell>
      </root>
    </mxGraphModel>
  </diagram>
</mxfile>
